<?xml version="1.0" encoding="utf-8"?>
<!-- Generator: Adobe Illustrator 26.3.1, SVG Export Plug-In . SVG Version: 6.00 Build 0)  -->
<svg version="1.1" id="Layer_1" xmlns="http://www.w3.org/2000/svg" xmlns:xlink="http://www.w3.org/1999/xlink" x="0px" y="0px"
	 viewBox="0 0 21.1 38.5" style="enable-background:new 0 0 21.1 38.5;" xml:space="preserve">
<style type="text/css">
	.st0{fill:#FFFFFF;}
</style>
<path class="st0" d="M20.8,29.9l-6.9-5.8c-0.4-0.4-1.1-0.3-1.4,0.1c-0.4,0.4-0.3,1.1,0.1,1.4l4.8,4c-0.4,0-0.9-0.1-1.4-0.1
	c-2.4-0.3-5.4-0.9-8-2.5c-2.6-1.6-4.8-4.1-5.6-8C1.5,14.9,2,9.3,5.1,1.4c0.2-0.5-0.1-1.1-0.6-1.3C4.1-0.1,3.5,0.1,3.3,0.6
	C0.1,8.7-0.6,14.8,0.4,19.4c1,4.6,3.5,7.5,6.5,9.3c3,1.8,6.3,2.5,8.8,2.8c0.8,0.1,1.6,0.1,2.2,0.2l-4.4,5.2
	c-0.4,0.4-0.3,1.1,0.1,1.4c0.4,0.4,1.1,0.3,1.4-0.1l5.8-6.9C21.3,30.8,21.2,30.2,20.8,29.9z M20.1,29.6L20.1,29.6L20.1,29.6
	C20.1,29.6,20.1,29.6,20.1,29.6z"/>
</svg>
